<?xml version="1.0" encoding="UTF-8" standalone="no"?>
<!-- Created with Inkscape (http://www.inkscape.org/) -->

<svg
   xmlns:dc="http://purl.org/dc/elements/1.1/"
   xmlns:cc="http://creativecommons.org/ns#"
   xmlns:rdf="http://www.w3.org/1999/02/22-rdf-syntax-ns#"
   xmlns:svg="http://www.w3.org/2000/svg"
   xmlns="http://www.w3.org/2000/svg"
   xmlns:sodipodi="http://sodipodi.sourceforge.net/DTD/sodipodi-0.dtd"
   xmlns:inkscape="http://www.inkscape.org/namespaces/inkscape"
   width="300"
   height="300"
   viewBox="0 0 300 300"
   id="svg5798"
   version="1.1"
   inkscape:version="0.91 r13725"
   sodipodi:docname="glasses.svg">
  <defs
     id="defs5800" />
  <sodipodi:namedview
     id="base"
     pagecolor="#ffffff"
     bordercolor="#666666"
     borderopacity="1.0"
     inkscape:pageopacity="0.0"
     inkscape:pageshadow="2"
     inkscape:zoom="0.98994949"
     inkscape:cx="91.088137"
     inkscape:cy="281.97126"
     inkscape:document-units="px"
     inkscape:current-layer="layer1"
     showgrid="false"
     units="px"
     showguides="true"
     inkscape:guide-bbox="true"
     inkscape:window-width="1366"
     inkscape:window-height="719"
     inkscape:window-x="0"
     inkscape:window-y="0"
     inkscape:window-maximized="1">
    <sodipodi:guide
       position="95.459416,256.01054"
       orientation="1,0"
       id="guide6354" />
    <sodipodi:guide
       position="193.48214,260.625"
       orientation="1,0"
       id="guide6356" />
  </sodipodi:namedview>
  <metadata
     id="metadata5803">
    <rdf:RDF>
      <cc:Work
         rdf:about="">
        <dc:format>image/svg+xml</dc:format>
        <dc:type
           rdf:resource="http://purl.org/dc/dcmitype/StillImage" />
        <dc:title></dc:title>
      </cc:Work>
    </rdf:RDF>
  </metadata>
  <g
     inkscape:groupmode="layer"
     id="layer2"
     inkscape:label="back" />
  <g
     inkscape:label="Layer 1"
     inkscape:groupmode="layer"
     id="layer1"
     transform="translate(0,-752.36216)">
    <path
       style="color:#000000;clip-rule:nonzero;display:inline;overflow:visible;visibility:visible;opacity:1;isolation:auto;mix-blend-mode:normal;color-interpolation:sRGB;color-interpolation-filters:linearRGB;solid-color:#000000;solid-opacity:1;fill:#f2f2f2;fill-opacity:1;fill-rule:nonzero;stroke:#000000;stroke-width:3.95037746;stroke-miterlimit:4;stroke-dasharray:none;stroke-opacity:0;color-rendering:auto;image-rendering:auto;shape-rendering:auto;text-rendering:auto;enable-background:accumulate"
       d="m 229.91011,861.62687 c -15.37551,-0.12745 -31.32852,2.72865 -47.93261,8.94888 -9.88344,4.29644 -15.25761,9.60507 -17.62456,15.34115 -11.84705,-1.19957 -22.65504,0.71827 -32.72884,4.83842 -2.09103,-4.50461 -5.90943,-8.56664 -12.14975,-11.81971 -28.589882,-11.42082 -59.192447,-12.44045 -92.400635,0 -36.8918022,16.03729 -11.025691,46.1654 0,60.06025 29.188765,35.13222 83.793135,19.96824 92.400635,0 3.75251,-7.6934 12.21956,-20.99089 13.93099,-33.79791 9.35972,-4.28254 20.29256,-6.1599 30.27963,-5.06897 2.87084,11.71555 12.57112,23.29676 18.29253,30.50701 29.18876,35.13222 83.79471,19.96825 92.40221,0 6.69194,-13.7198 28.38463,-45.26339 0,-60.06024 -14.29494,-5.71041 -29.09409,-8.82142 -44.4696,-8.94888 z"
       id="rect4245"
       inkscape:connector-curvature="0" />
    <path
       style="color:#000000;clip-rule:nonzero;display:inline;overflow:visible;visibility:visible;opacity:1;isolation:auto;mix-blend-mode:normal;color-interpolation:sRGB;color-interpolation-filters:linearRGB;solid-color:#000000;solid-opacity:1;fill:#aaccff;fill-opacity:1;fill-rule:nonzero;stroke:#000000;stroke-width:2.84407043;stroke-miterlimit:4;stroke-dasharray:none;stroke-opacity:0;color-rendering:auto;image-rendering:auto;shape-rendering:auto;text-rendering:auto;enable-background:accumulate"
       d="m 38.612279,889.4474 c 23.908204,-8.95649 45.940812,-8.22241 66.524071,0 20.43548,10.65298 4.81786,33.36308 0,43.24064 -6.196961,14.37611 -45.509647,25.29341 -66.524071,0 -7.937937,-10.00358 -26.56022,-31.69461 0,-43.24064 z"
       id="rect4245-1"
       inkscape:connector-curvature="0"
       sodipodi:nodetypes="ccccc" />
    <path
       style="color:#000000;clip-rule:nonzero;display:inline;overflow:visible;visibility:visible;opacity:1;isolation:auto;mix-blend-mode:normal;color-interpolation:sRGB;color-interpolation-filters:linearRGB;solid-color:#000000;solid-opacity:1;fill:#aaccff;fill-opacity:1;fill-rule:nonzero;stroke:#000000;stroke-width:2.84407043;stroke-miterlimit:4;stroke-dasharray:none;stroke-opacity:0;color-rendering:auto;image-rendering:auto;shape-rendering:auto;text-rendering:auto;enable-background:accumulate"
       d="m 194.23238,879.52469 c 23.9082,-8.95649 45.94082,-8.22242 66.52407,0 20.43548,10.65297 4.81786,33.36307 0,43.24063 -6.19696,14.37612 -45.50965,25.29341 -66.52407,0 -7.93794,-10.00358 -26.56022,-31.6946 0,-43.24063 z"
       id="rect4245-1-2"
       inkscape:connector-curvature="0"
       sodipodi:nodetypes="ccccc" />
    <path
       style="color:#000000;clip-rule:nonzero;display:inline;overflow:visible;visibility:visible;opacity:1;isolation:auto;mix-blend-mode:normal;color-interpolation:sRGB;color-interpolation-filters:linearRGB;solid-color:#000000;solid-opacity:1;fill:#ffffff;fill-opacity:0.39560439;fill-rule:nonzero;stroke:#000000;stroke-width:3.95037746;stroke-miterlimit:4;stroke-dasharray:none;stroke-opacity:0;color-rendering:auto;image-rendering:auto;shape-rendering:auto;text-rendering:auto;enable-background:accumulate"
       d="m 63.214513,883.55923 c 13.600739,-1.67814 26.286183,0.56641 38.543567,4.64552 l -28.742952,59.46683 c -12.191315,0.22754 -25.53955,-3.43431 -34.302152,-15.10928 z"
       id="rect4305"
       inkscape:connector-curvature="0"
       sodipodi:nodetypes="ccccc" />
    <path
       style="color:#000000;clip-rule:nonzero;display:inline;overflow:visible;visibility:visible;opacity:1;isolation:auto;mix-blend-mode:normal;color-interpolation:sRGB;color-interpolation-filters:linearRGB;solid-color:#000000;solid-opacity:1;fill:#ffffff;fill-opacity:0.39560439;fill-rule:nonzero;stroke:#000000;stroke-width:3.95037746;stroke-miterlimit:4;stroke-dasharray:none;stroke-opacity:0;color-rendering:auto;image-rendering:auto;shape-rendering:auto;text-rendering:auto;enable-background:accumulate"
       d="m 218.92627,873.71964 c 13.60074,-1.67814 26.28618,0.56641 38.54356,4.64552 L 228.72688,937.832 c -12.19132,0.22753 -25.53955,-3.43432 -34.30215,-15.10928 z"
       id="rect4305-7"
       inkscape:connector-curvature="0"
       sodipodi:nodetypes="ccccc" />
  </g>
</svg>
