<?xml version="1.0" encoding="UTF-8" standalone="no"?>
<!-- Created with Inkscape (http://www.inkscape.org/) -->

<svg
   xmlns:dc="http://purl.org/dc/elements/1.1/"
   xmlns:cc="http://creativecommons.org/ns#"
   xmlns:rdf="http://www.w3.org/1999/02/22-rdf-syntax-ns#"
   xmlns:svg="http://www.w3.org/2000/svg"
   xmlns="http://www.w3.org/2000/svg"
   xmlns:sodipodi="http://sodipodi.sourceforge.net/DTD/sodipodi-0.dtd"
   xmlns:inkscape="http://www.inkscape.org/namespaces/inkscape"
   width="300"
   height="300"
   viewBox="0 0 300 300"
   id="svg4813"
   version="1.1"
   inkscape:version="0.91 r13725"
   sodipodi:docname="urine.svg">
  <defs
     id="defs4815" />
  <sodipodi:namedview
     id="base"
     pagecolor="#ffffff"
     bordercolor="#666666"
     borderopacity="1.0"
     inkscape:pageopacity="0.0"
     inkscape:pageshadow="2"
     inkscape:zoom="1.4"
     inkscape:cx="139.1945"
     inkscape:cy="224.88651"
     inkscape:document-units="px"
     inkscape:current-layer="layer12"
     showgrid="false"
     units="px"
     inkscape:window-width="1366"
     inkscape:window-height="719"
     inkscape:window-x="0"
     inkscape:window-y="0"
     inkscape:window-maximized="1" />
  <metadata
     id="metadata4818">
    <rdf:RDF>
      <cc:Work
         rdf:about="">
        <dc:format>image/svg+xml</dc:format>
        <dc:type
           rdf:resource="http://purl.org/dc/dcmitype/StillImage" />
        <dc:title></dc:title>
      </cc:Work>
    </rdf:RDF>
  </metadata>
  <g
     inkscape:groupmode="layer"
     id="layer12"
     inkscape:label="Layer 2">
    <path
       style="color:#000000;clip-rule:nonzero;display:inline;overflow:visible;visibility:visible;opacity:1;isolation:auto;mix-blend-mode:normal;color-interpolation:sRGB;color-interpolation-filters:linearRGB;solid-color:#000000;solid-opacity:1;fill:#ffffff;fill-opacity:1;fill-rule:nonzero;stroke:#6a6a6a;stroke-width:12.69277096;stroke-miterlimit:4;stroke-dasharray:none;stroke-opacity:0;color-rendering:auto;image-rendering:auto;shape-rendering:auto;text-rendering:auto;enable-background:accumulate"
       d="m 192.68555,92.296875 c -10.91263,0.202102 -16.06187,11.534995 -22.77344,18.107425 -12.88669,7.97033 -28.13538,-4.12677 -41.37695,2.31836 -5.07701,2.50465 -8.66922,7.75289 -10.98828,12.35351 -5.21096,-4.32506 -12.04263,-11.39487 -19.425786,-7.64648 -6.249759,4.7858 -2.258906,13.67689 1.246094,18.92187 -13.251003,-5.11649 -27.81401,-14.26531 -42.50586,-9.35742 -6.285648,3.1603 -8.17475,10.79624 -8.410156,17.27344 -11.916838,2.11167 -25.168776,10.11408 -25.898438,23.41797 -0.759254,7.38445 5.578905,13.51434 12.642155,14.14941 35.741244,12.07013 73.793941,14.40831 111.143001,17.02246 18.57425,0.57273 37.99311,0.76991 55.55273,-5.99023 3.52741,-2.02195 5.36182,-6.1861 6.64063,-9.5586 17.5289,-0.98182 35.8158,-1.97771 51.90625,-9.70117 6.40536,-3.05214 14.428,-8.37103 12.37891,-16.63086 -1.93633,-9.40003 -12.48192,-12.61484 -20.48337,-15.08593 -5.44848,-1.81317 -12.57623,-1.63753 -16.98734,-4.25977 0.23085,-6.0756 -4.20619,-14.0134 -11.29882,-11.81055 -1.54782,0.35786 -0.17204,-3.48038 -1.26172,-4.78515 -2.42496,-8.03914 -12.61462,-12.49018 -20.00977,-8.29102 2.51763,-6.8106 2.71826,-17.675028 -5.68555,-20.226562 -1.45069,-0.277636 -2.93645,-0.184898 -4.40429,-0.220703 z"
       id="rect5605-8"
       inkscape:connector-curvature="0" />
  </g>
  <g
     inkscape:label="Layer 1"
     inkscape:groupmode="layer"
     id="layer1"
     transform="translate(0,-752.36216)">
    <path
       style="color:#000000;clip-rule:nonzero;display:inline;overflow:visible;visibility:visible;opacity:1;isolation:auto;mix-blend-mode:normal;color-interpolation:sRGB;color-interpolation-filters:linearRGB;solid-color:#000000;solid-opacity:1;fill:#ffcc00;fill-opacity:1;fill-rule:nonzero;stroke:#6a6a6a;stroke-width:12.69277096;stroke-miterlimit:4;stroke-dasharray:none;stroke-opacity:0;color-rendering:auto;image-rendering:auto;shape-rendering:auto;text-rendering:auto;enable-background:accumulate"
       d="m 119.83112,884.20858 c 7.95441,-38.61745 41.94764,1.7663 58.74185,-26.22896 2.65449,-4.67501 8.46432,-11.65892 18.19144,-9.93282 6.74766,3.88866 1.89969,12.56054 -0.70828,25.1138 9.48679,-8.3568 16.26977,-7.38593 20.36362,-3.4492 9.4821,9.79717 -8.06671,17.43186 -12.10008,26.14779 33.10867,-31.33313 24.83936,-3.68751 26.8837,-2.20285 59.07958,5.99413 48.56684,36.48432 -28.40611,36.96718 16.89766,30.46754 -152.72735,10.40735 -175.103398,-4.90205 -4.959125,-14.11449 6.261499,-23.62799 24.859153,-26.67463 -2.324046,-35.88349 34.921561,-9.00132 59.100255,-2.84596 -12.519687,-6.87032 -24.919031,-43.56221 8.17785,-11.9923 z"
       id="rect5605"
       inkscape:connector-curvature="0"
       sodipodi:nodetypes="cccccccccccc" />
    <path
       style="color:#000000;clip-rule:nonzero;display:inline;overflow:visible;visibility:visible;opacity:1;isolation:auto;mix-blend-mode:normal;color-interpolation:sRGB;color-interpolation-filters:linearRGB;solid-color:#000000;solid-opacity:1;fill:#ffcc00;fill-opacity:1;fill-rule:nonzero;stroke:#6a6a6a;stroke-width:12.69277096;stroke-miterlimit:4;stroke-dasharray:none;stroke-opacity:0;color-rendering:auto;image-rendering:auto;shape-rendering:auto;text-rendering:auto;enable-background:accumulate"
       d="m 231.58377,853.75465 c -189.136459,102.23276 -94.56823,51.11639 0,0 z"
       id="rect5608"
       inkscape:connector-curvature="0"
       sodipodi:nodetypes="cc" />
    <path
       style="color:#000000;clip-rule:nonzero;display:inline;overflow:visible;visibility:visible;opacity:1;isolation:auto;mix-blend-mode:normal;color-interpolation:sRGB;color-interpolation-filters:linearRGB;solid-color:#000000;solid-opacity:1;fill:#cfa500;fill-opacity:0.52747258;fill-rule:nonzero;stroke:#6a6a6a;stroke-width:12.69277096;stroke-miterlimit:4;stroke-dasharray:none;stroke-opacity:0;color-rendering:auto;image-rendering:auto;shape-rendering:auto;text-rendering:auto;enable-background:accumulate"
       d="m 230.97451,893.64696 10.74254,1.45123 c -7.86199,1.46373 -21.50527,11.55143 -27.61993,15.76096 4.33317,-4.65694 14.63445,-17.52463 15.98794,-26.40277 1.08108,2.67123 0.79198,6.02757 0.88945,9.19058 z"
       id="rect5628"
       inkscape:connector-curvature="0"
       sodipodi:nodetypes="ccccc" />
    <path
       style="color:#000000;clip-rule:nonzero;display:inline;overflow:visible;visibility:visible;opacity:1;isolation:auto;mix-blend-mode:normal;color-interpolation:sRGB;color-interpolation-filters:linearRGB;solid-color:#000000;solid-opacity:1;fill:#ffdd55;fill-opacity:0.52747258;fill-rule:nonzero;stroke:#6a6a6a;stroke-width:12.69277096;stroke-miterlimit:4;stroke-dasharray:none;stroke-opacity:0;color-rendering:auto;image-rendering:auto;shape-rendering:auto;text-rendering:auto;enable-background:accumulate"
       d="m 249.04209,834.40242 c -200.775338,115.1342 -100.38767,57.56714 0,0 z"
       id="rect5636"
       inkscape:connector-curvature="0"
       sodipodi:nodetypes="cc" />
    <path
       style="color:#000000;clip-rule:nonzero;display:inline;overflow:visible;visibility:visible;opacity:1;isolation:auto;mix-blend-mode:normal;color-interpolation:sRGB;color-interpolation-filters:linearRGB;solid-color:#000000;solid-opacity:1;fill:#cfa500;fill-opacity:0.52747258;fill-rule:nonzero;stroke:#6a6a6a;stroke-width:12.69277096;stroke-miterlimit:4;stroke-dasharray:none;stroke-opacity:0;color-rendering:auto;image-rendering:auto;shape-rendering:auto;text-rendering:auto;enable-background:accumulate"
       d="m 194.27239,917.06613 c 2.51886,-10.59081 2.16245,-15.07413 10.12923,-21.38394 l 7.48107,-6.48802 c -7.617,8.52779 -15.7409,17.67496 -17.6103,27.87196 z"
       id="rect5770"
       inkscape:connector-curvature="0"
       sodipodi:nodetypes="cccc" />
    <path
       style="color:#000000;clip-rule:nonzero;display:inline;overflow:visible;visibility:visible;opacity:1;isolation:auto;mix-blend-mode:normal;color-interpolation:sRGB;color-interpolation-filters:linearRGB;solid-color:#000000;solid-opacity:1;fill:#cfa500;fill-opacity:0.52941165;fill-rule:nonzero;stroke:#6a6a6a;stroke-width:12.69277096;stroke-miterlimit:4;stroke-dasharray:none;stroke-opacity:0;color-rendering:auto;image-rendering:auto;shape-rendering:auto;text-rendering:auto;enable-background:accumulate"
       d="m 198.56672,861.91677 -2.6072,11.38297 c 2.54159,-2.56065 5.26596,-4.06115 8.02583,-5.35575 -10.18328,12.4335 -14.65362,16.89206 -12.7215,27.09739 -4.03475,-19.95104 2.81002,-22.57197 7.30287,-33.12461 z"
       id="rect5784"
       inkscape:connector-curvature="0"
       sodipodi:nodetypes="ccccc" />
    <path
       style="color:#000000;clip-rule:nonzero;display:inline;overflow:visible;visibility:visible;opacity:1;isolation:auto;mix-blend-mode:normal;color-interpolation:sRGB;color-interpolation-filters:linearRGB;solid-color:#000000;solid-opacity:1;fill:#cfa500;fill-opacity:0.52941165;fill-rule:nonzero;stroke:#6a6a6a;stroke-width:12.69277096;stroke-miterlimit:4;stroke-dasharray:none;stroke-opacity:0;color-rendering:auto;image-rendering:auto;shape-rendering:auto;text-rendering:auto;enable-background:accumulate"
       d="m 111.45146,876.87177 c 2.9674,2.34062 5.88232,4.7095 8.38274,7.40379 0.0638,-2.56263 2.25161,-7.56796 3.69116,-10.54759 -1.81205,7.9714 2.68114,13.11815 0.38187,28.20921 -0.77217,-8.83795 -6.92777,-16.90686 -12.45577,-25.06541 z"
       id="rect5838"
       inkscape:connector-curvature="0"
       sodipodi:nodetypes="ccccc" />
    <path
       style="color:#000000;clip-rule:nonzero;display:inline;overflow:visible;visibility:visible;opacity:1;isolation:auto;mix-blend-mode:normal;color-interpolation:sRGB;color-interpolation-filters:linearRGB;solid-color:#000000;solid-opacity:1;fill:#cfa500;fill-opacity:0.52941165;fill-rule:nonzero;stroke:#6a6a6a;stroke-width:12.69277096;stroke-miterlimit:4;stroke-dasharray:none;stroke-opacity:0;color-rendering:auto;image-rendering:auto;shape-rendering:auto;text-rendering:auto;enable-background:accumulate"
       d="m 52.52764,899.01805 c 13.345806,9.94801 40.804566,15.32593 70.97249,13.81102 -21.50513,5.2508 -71.671132,0.33002 -70.97249,-13.81102 z"
       id="rect5843"
       inkscape:connector-curvature="0"
       sodipodi:nodetypes="ccc" />
    <path
       style="color:#000000;clip-rule:nonzero;display:inline;overflow:visible;visibility:visible;opacity:1;isolation:auto;mix-blend-mode:normal;color-interpolation:sRGB;color-interpolation-filters:linearRGB;solid-color:#000000;solid-opacity:1;fill:#cfa500;fill-opacity:0.52941165;fill-rule:nonzero;stroke:#6a6a6a;stroke-width:12.69277096;stroke-miterlimit:4;stroke-dasharray:none;stroke-opacity:0;color-rendering:auto;image-rendering:auto;shape-rendering:auto;text-rendering:auto;enable-background:accumulate"
       d="m 26.535809,920.2701 c 48.061148,13.53277 183.827051,39.49103 166.847931,2.26806 l 9.41812,8.09204 c 16.82816,29.86664 -151.452544,11.46471 -175.107477,-4.90414 -0.483756,-1.64792 -0.91979,-3.37933 -1.158574,-5.45596 z"
       id="rect5857"
       inkscape:connector-curvature="0"
       sodipodi:nodetypes="ccccc" />
    <path
       style="color:#000000;clip-rule:nonzero;display:inline;overflow:visible;visibility:visible;opacity:1;isolation:auto;mix-blend-mode:normal;color-interpolation:sRGB;color-interpolation-filters:linearRGB;solid-color:#000000;solid-opacity:1;fill:#ffe068;fill-opacity:0.52941165;fill-rule:nonzero;stroke:#6a6a6a;stroke-width:12.69277096;stroke-miterlimit:4;stroke-dasharray:none;stroke-opacity:0;color-rendering:auto;image-rendering:auto;shape-rendering:auto;text-rendering:auto;enable-background:accumulate"
       d="m 27.059662,915.2869 c 54.028809,10.15604 134.595438,41.40403 166.974048,8.32832 12.85768,35.8941 -118.435126,9.15045 -167.487284,-3.35291 0.114544,-1.55366 -0.288103,-2.06319 0.513236,-4.97541 z"
       id="rect5860"
       inkscape:connector-curvature="0"
       sodipodi:nodetypes="cccc" />
    <path
       style="color:#000000;clip-rule:nonzero;display:inline;overflow:visible;visibility:visible;opacity:1;isolation:auto;mix-blend-mode:normal;color-interpolation:sRGB;color-interpolation-filters:linearRGB;solid-color:#000000;solid-opacity:1;fill:#cfa500;fill-opacity:0.52941165;fill-rule:nonzero;stroke:#6a6a6a;stroke-width:12.69277096;stroke-miterlimit:4;stroke-dasharray:none;stroke-opacity:0;color-rendering:auto;image-rendering:auto;shape-rendering:auto;text-rendering:auto;enable-background:accumulate"
       d="m 252.53537,924.08047 c -8.564,2.93307 -32.41379,7.64624 -49.82498,6.41092 15.09625,-3.13804 15.88094,-2.57936 25.43847,-5.5295 17.88458,-5.52052 37.80631,-11.24909 38.52263,-9.54935 0.33962,0.80585 -3.63992,4.9988 -14.13612,8.66793 z"
       id="rect5865"
       inkscape:connector-curvature="0"
       sodipodi:nodetypes="ccssc" />
  </g>
</svg>
