<?xml version="1.0" encoding="UTF-8" standalone="no"?>
<!-- Created with Inkscape (http://www.inkscape.org/) -->

<svg
   xmlns:dc="http://purl.org/dc/elements/1.1/"
   xmlns:cc="http://creativecommons.org/ns#"
   xmlns:rdf="http://www.w3.org/1999/02/22-rdf-syntax-ns#"
   xmlns:svg="http://www.w3.org/2000/svg"
   xmlns="http://www.w3.org/2000/svg"
   xmlns:sodipodi="http://sodipodi.sourceforge.net/DTD/sodipodi-0.dtd"
   xmlns:inkscape="http://www.inkscape.org/namespaces/inkscape"
   id="svg2"
   version="1.1"
   inkscape:version="0.91 r13725"
   width="500"
   height="500"
   viewBox="0 0 500 500"
   sodipodi:docname="regular1.svg"
   inkscape:export-filename="/home/marsza/Obrazy/blyp.png"
   inkscape:export-xdpi="90"
   inkscape:export-ydpi="90">
  <metadata
     id="metadata8">
    <rdf:RDF>
      <cc:Work
         rdf:about="">
        <dc:format>image/svg+xml</dc:format>
        <dc:type
           rdf:resource="http://purl.org/dc/dcmitype/StillImage" />
        <dc:title></dc:title>
      </cc:Work>
    </rdf:RDF>
  </metadata>
  <defs
     id="defs6" />
  <sodipodi:namedview
     pagecolor="#ffffff"
     bordercolor="#666666"
     borderopacity="1"
     objecttolerance="10"
     gridtolerance="10"
     guidetolerance="10"
     inkscape:pageopacity="0"
     inkscape:pageshadow="2"
     inkscape:window-width="1366"
     inkscape:window-height="719"
     id="namedview4"
     showgrid="false"
     showguides="false"
     inkscape:snap-text-baseline="false"
     inkscape:zoom="0.5"
     inkscape:cx="61.3334"
     inkscape:cy="256.1787"
     inkscape:window-x="0"
     inkscape:window-y="0"
     inkscape:window-maximized="1"
     inkscape:current-layer="layer12" />
  <g
     inkscape:groupmode="layer"
     id="layer12"
     inkscape:label="TLO 1"
     style="display:inline" />
  <g
     inkscape:groupmode="layer"
     id="layer11"
     inkscape:label="TLO"
     style="display:inline">
    <path
       style="color:#000000;clip-rule:nonzero;display:inline;overflow:visible;visibility:visible;opacity:1;isolation:auto;mix-blend-mode:normal;color-interpolation:sRGB;color-interpolation-filters:linearRGB;solid-color:#000000;solid-opacity:1;fill:#ffffff;fill-opacity:1;fill-rule:nonzero;stroke:#6a6a6a;stroke-width:8.55900002;stroke-miterlimit:4;stroke-dasharray:none;stroke-opacity:0;color-rendering:auto;image-rendering:auto;shape-rendering:auto;text-rendering:auto;enable-background:accumulate"
       d="m 285.85938,48.640625 c -26.2165,0.292612 -51.29319,9.126838 -76.41139,15.580594 -29.09697,9.541826 -58.0436,28.311709 -69.33276,58.052221 -4.6943,12.59056 -4.5279,26.37697 -4.65625,39.49218 1.56081,4.35913 5.0134,7.76334 5.71875,12.4629 4.13401,9.11404 13.37311,15.61112 15.11133,25.78515 -10.35617,15.59034 -8.70745,37.98738 3.4375,52.17774 -0.39886,11.56549 -3.22736,22.9149 -3.73395,34.50185 -3.02791,31.15418 -0.70707,63.48105 11.83356,92.48057 3.16178,-15.3568 5.89277,-31.05423 12.56055,-45.3711 5.0588,16.84761 7.97152,34.42014 7.01758,52.07032 3.48894,3.70789 8.80955,0.86549 10.14258,-3.32813 1.62179,-3.29092 3.42187,-6.51418 4.55859,-10.01953 4.03487,13.67575 12.16672,26.02891 23.07226,35.21094 0.85348,-7.63999 -0.31568,-15.58091 1.65821,-22.94531 2.46792,-0.81236 0.51407,4.16514 1.32468,5.71125 0.0669,5.87206 1.59796,13.06533 -2.98484,17.65593 -2.3488,5.09661 -1.46856,11.35186 -5.82031,15.53907 -2.80498,3.93693 -6.95046,9.86366 -12.35156,8.70507 -12.86681,-8.36082 -34.18365,-1.29721 -36.08789,14.92578 -1.9692,10.62314 8.78864,18.06257 17.72656,20.74219 13.14318,4.98415 28.46092,5.1041 41.23047,-0.34765 14.95244,13.03456 37.9842,14.78358 55.64453,6.56836 6.98386,-3.8594 12.24795,-10.13728 16.5039,-16.76368 1.58607,4.71765 7.29479,6.68845 11.40235,3.85157 7.71243,-2.50314 11.53406,-10.8515 11.12305,-18.4961 1.87484,-12.407 2.93759,-24.91487 4.15234,-37.39843 -1.94573,2.29627 -3.11125,3.80173 -3.21484,0.31054 -2.74057,-11.7566 3.28985,-23.20339 4.39951,-34.83362 2.20538,-10.26055 3.7612,-22.48455 7.1708,-31.20349 9.31188,12.85676 12.48836,28.78126 16.75,43.75196 3.16123,-8.96587 5.83256,-18.13885 7.17383,-27.56836 2.72192,0.48166 6.05235,-1.98858 7.86523,-1.94141 2.88365,8.86838 4.97705,17.96367 6.90234,27.08008 20.89005,-38.27779 23.38314,-82.8543 25.23047,-125.48633 6.57689,-12.48496 9.33989,-26.55826 13.38738,-39.97151 6.90676,-28.00461 9.295,-58.4736 -0.92253,-85.98943 C 386.09492,85.460299 340.20946,47.865438 285.85938,48.640625 Z m -6.22266,344.673825 c 1.29815,6.55473 4.63821,13.76598 1.44336,20.1836 -4.75798,4.4134 -2.3657,12.50982 -7.20508,17.1289 -0.85638,1.15213 -4.31808,6.96887 -3.00391,2.38867 0.69414,-8.28036 2.37195,-16.55052 2.4668,-24.75195 -0.77862,-2.15439 -3.76658,-3.83536 -0.42686,-5.76592 2.37874,-3.22764 4.60182,-6.57663 6.53819,-10.08955 l 0.1875,0.90625 z"
       id="rect4298-2"
       inkscape:connector-curvature="0" />
  </g>
  <g
     inkscape:groupmode="layer"
     id="layer6"
     inkscape:label="head 1"
     style="display:inline">
    <path
       style="color:#000000;clip-rule:nonzero;display:inline;overflow:visible;visibility:visible;opacity:1;isolation:auto;mix-blend-mode:normal;color-interpolation:sRGB;color-interpolation-filters:linearRGB;solid-color:#000000;solid-opacity:1;fill:#803300;fill-opacity:1;fill-rule:nonzero;stroke:#6a6a6a;stroke-width:8.55900002;stroke-miterlimit:4;stroke-dasharray:none;stroke-opacity:0;color-rendering:auto;image-rendering:auto;shape-rendering:auto;text-rendering:auto;enable-background:accumulate"
       d="m 166,216 233,0 c -5.74541,51.08011 -0.003,104.2861 -22.62742,152.24264 -2.72958,-11.81506 -5.88945,-24.14647 -17.86131,-47.05228 -0.52751,17.18003 -1.00932,34.40576 -5.21324,47.90938 -4.04406,-13.67743 -6.81034,-27.35486 -21.75834,-41.03229 -1.44681,37.041 -15.26503,56.40857 -29.64768,74.96982 -2.40718,-16.72476 1.82132,-30.96114 -14.41643,-52.87237 -3.50113,30.59491 -16.46957,50.37003 -33.10946,65.94921 3.43044,-21.4909 9.95396,-41.43526 -8.35808,-73.79739 -22.59581,17.49476 -26.14901,46.64696 -24.62651,55.75714 -16.32894,-15.6792 -19.23341,-36.39258 -20.71325,-57.64019 2.15139,22.41463 -3.99388,34.87329 -11.13104,46.14166 3.46222,-17.81034 -1.00287,-39.75191 -8.84712,-63.45448 C 170.06312,341.28533 169.73131,350.86988 166,364 c -17.6412,-56.38981 -0.11691,-98.71343 0,-148 z"
       id="rect4298"
       inkscape:connector-curvature="0"
       sodipodi:nodetypes="cccccccccccccccc" />
  </g>
  <g
     inkscape:groupmode="layer"
     id="layer10"
     inkscape:label="udoL"
     style="display:inline">
    <path
       style="color:#000000;clip-rule:nonzero;display:inline;overflow:visible;visibility:visible;opacity:1;isolation:auto;mix-blend-mode:normal;color-interpolation:sRGB;color-interpolation-filters:linearRGB;solid-color:#000000;solid-opacity:1;fill:#e6e6e6;fill-opacity:1;fill-rule:nonzero;stroke:#000000;stroke-width:9.69430637;stroke-miterlimit:4;stroke-dasharray:none;stroke-opacity:0;color-rendering:auto;image-rendering:auto;shape-rendering:auto;text-rendering:auto;enable-background:accumulate"
       d="m 278.4169,368.99159 c -6.14501,-22.10197 50.52979,-43.61096 51.80307,-23.82249 l -9.74302,48.7151 c 0.78219,15.09728 -30.75264,19.53711 -35.75536,6.11628 z"
       id="rect4334"
       inkscape:connector-curvature="0"
       sodipodi:nodetypes="ccccc" />
    <path
       style="color:#000000;clip-rule:nonzero;display:inline;overflow:visible;visibility:visible;opacity:1;isolation:auto;mix-blend-mode:normal;color-interpolation:sRGB;color-interpolation-filters:linearRGB;solid-color:#000000;solid-opacity:1;fill:#e9c6af;fill-opacity:1;fill-rule:nonzero;stroke:#000000;stroke-width:9.69430637;stroke-miterlimit:4;stroke-dasharray:none;stroke-opacity:0;color-rendering:auto;image-rendering:auto;shape-rendering:auto;text-rendering:auto;enable-background:accumulate"
       d="m 316.83905,388.26642 c 3.46506,5.44269 1.11474,7.10353 -11.50607,3.37801 -10.55427,-3.1155 -16.49055,9.41572 -16.58044,-1.40019 0.56511,-13.24062 19.8151,-13.01146 28.08651,-1.97782 z"
       id="rect4349"
       inkscape:connector-curvature="0"
       sodipodi:nodetypes="cscc" />
  </g>
  <g
     inkscape:groupmode="layer"
     id="layer18"
     inkscape:label="udoP"
     style="display:inline">
    <path
       style="color:#000000;clip-rule:nonzero;display:inline;overflow:visible;visibility:visible;opacity:1;isolation:auto;mix-blend-mode:normal;color-interpolation:sRGB;color-interpolation-filters:linearRGB;solid-color:#000000;solid-opacity:1;fill:#e6e6e6;fill-opacity:1;fill-rule:nonzero;stroke:#000000;stroke-width:9.69430637;stroke-miterlimit:4;stroke-dasharray:none;stroke-opacity:0;color-rendering:auto;image-rendering:auto;shape-rendering:auto;text-rendering:auto;enable-background:accumulate"
       d="m 273.33336,365.85344 c 6.14501,-22.10197 -40.62634,-41.88863 -41.89962,-22.10016 l -0.16043,46.99277 c -0.7822,15.09727 30.75264,19.53711 35.75536,6.11628 z"
       id="rect4334-6"
       inkscape:connector-curvature="0"
       sodipodi:nodetypes="ccccc" />
  </g>
  <g
     inkscape:groupmode="layer"
     id="layer16"
     inkscape:label="lydkaL"
     style="display:inline">
    <path
       style="color:#000000;clip-rule:nonzero;display:inline;overflow:visible;visibility:visible;opacity:1;isolation:auto;mix-blend-mode:normal;color-interpolation:sRGB;color-interpolation-filters:linearRGB;solid-color:#000000;solid-opacity:1;fill:#e6e6e6;fill-opacity:1;fill-rule:nonzero;stroke:#000000;stroke-width:9.69430637;stroke-miterlimit:4;stroke-dasharray:none;stroke-opacity:0;color-rendering:auto;image-rendering:auto;shape-rendering:auto;text-rendering:auto;enable-background:accumulate"
       d="m 286.33311,402.60934 c 0.39069,-8.44589 34.25384,-10.68314 33.26737,-3.44467 3.45882,12.73444 0.91849,18.64779 -0.86117,25.29893 -1.19646,8.22518 -26.93529,4.94683 -30.03351,-0.54585 -1.9857,-1.18172 -5.07691,-10.16716 -2.37269,-21.30841 z"
       id="rect4354"
       inkscape:connector-curvature="0"
       sodipodi:nodetypes="ccccc" />
  </g>
  <g
     inkscape:groupmode="layer"
     id="layer19"
     inkscape:label="lydkaP"
     style="display:inline">
    <path
       style="color:#000000;clip-rule:nonzero;display:inline;overflow:visible;visibility:visible;opacity:1;isolation:auto;mix-blend-mode:normal;color-interpolation:sRGB;color-interpolation-filters:linearRGB;solid-color:#000000;solid-opacity:1;fill:#e6e6e6;fill-opacity:1;fill-rule:nonzero;stroke:#000000;stroke-width:9.69430637;stroke-miterlimit:4;stroke-dasharray:none;stroke-opacity:0;color-rendering:auto;image-rendering:auto;shape-rendering:auto;text-rendering:auto;enable-background:accumulate"
       d="m 265.8819,399.16372 c -0.3907,-8.44589 -34.25385,-10.68314 -33.26738,-3.44467 -3.45882,12.73444 -0.91849,18.64779 0.86117,25.29893 1.19646,8.22518 26.93529,4.94683 30.03351,-0.54585 1.9857,-1.18172 5.07691,-10.16716 2.3727,-21.30841 z"
       id="rect4354-7"
       inkscape:connector-curvature="0"
       sodipodi:nodetypes="ccccc" />
  </g>
  <g
     inkscape:groupmode="layer"
     id="layer20"
     inkscape:label="glanP"
     style="display:inline">
    <path
       style="display:inline;fill:#0c0c0c;fill-opacity:1;stroke:#000000;stroke-width:1.02219272;stroke-opacity:0"
       d="m 268.97002,407.11339 c -13.10512,2.68013 -26.07236,4.3785 -38.17533,-0.35467 -4.99694,1.50059 -1.80955,7.59181 -6.90076,15.87863 -4.87023,6.43255 -5.97012,9.15967 -11.26684,12.29161 l -5.65839,2.07387 c -13.19034,-9.82648 -35.59042,-3.70216 -32.51706,16.90098 10.63647,11.70031 26.39576,14.54974 44.5284,12.73425 3.38936,-0.57757 41.53727,-18.00076 45.41345,-24.26603 2.15769,-11.45203 3.15076,-19.79353 4.57653,-35.25864 z"
       id="rect4460-3-5"
       inkscape:connector-curvature="0"
       sodipodi:nodetypes="ccccccccc" />
    <circle
       style="display:inline;fill:#333333;fill-opacity:1;stroke:#000000;stroke-width:1.02219272;stroke-opacity:0"
       id="path4480-7-5"
       cx="-237.93265"
       cy="415.03925"
       r="1.469402"
       transform="scale(-1,1)" />
    <circle
       style="display:inline;fill:#333333;fill-opacity:1;stroke:#000000;stroke-width:1.02219272;stroke-opacity:0"
       id="path4482-9-6"
       cx="-235.37718"
       cy="420.4696"
       r="1.469402"
       transform="scale(-1,1)" />
    <circle
       style="display:inline;fill:#333333;fill-opacity:1;stroke:#000000;stroke-width:1.02219272;stroke-opacity:0"
       id="path4484-2-2"
       cx="-232.63005"
       cy="424.94171"
       r="1.405515"
       transform="scale(-1,1)" />
    <circle
       style="display:inline;fill:#333333;fill-opacity:1;stroke:#000000;stroke-width:1.02219272;stroke-opacity:0"
       id="path4486-0-9"
       cx="-228.82878"
       cy="429.63742"
       r="1.5652326"
       transform="scale(-1,1)" />
    <circle
       style="display:inline;fill:#333333;fill-opacity:1;stroke:#000000;stroke-width:1.02219272;stroke-opacity:0"
       id="path4488-2-1"
       cx="-225.21916"
       cy="432.92758"
       r="1.469402"
       transform="scale(-1,1)" />
    <circle
       style="display:inline;fill:#333333;fill-opacity:1;stroke:#000000;stroke-width:1.02219272;stroke-opacity:0"
       id="path4490-3-2"
       cx="-220.77898"
       cy="436.40942"
       r="1.2457974"
       transform="scale(-1,1)" />
    <circle
       style="display:inline;fill:#0c0c0c;fill-opacity:1;stroke:#000000;stroke-width:0.71710134;stroke-opacity:0"
       id="path4494-3-2-7"
       cx="-237.94351"
       cy="415.00189"
       r="0.82398421"
       transform="scale(-1,1)" />
    <circle
       style="display:inline;fill:#0c0c0c;fill-opacity:1;stroke:#000000;stroke-width:0.7448228;stroke-opacity:0"
       id="path4494-6-2-0"
       cx="-235.39072"
       cy="420.47122"
       r="0.85583764"
       transform="scale(-1,1)" />
    <circle
       style="display:inline;fill:#0c0c0c;fill-opacity:1;stroke:#000000;stroke-width:0.70257324;stroke-opacity:0"
       id="path4494-7-8-9"
       cx="-232.66599"
       cy="424.94446"
       r="0.80729067"
       transform="scale(-1,1)" />
    <circle
       style="display:inline;fill:#0c0c0c;fill-opacity:1;stroke:#000000;stroke-width:0.81395572;stroke-opacity:0"
       id="path4494-5-9-3"
       cx="-228.83678"
       cy="429.62946"
       r="0.93527466"
       transform="scale(-1,1)" />
    <circle
       style="display:inline;fill:#0c0c0c;fill-opacity:1;stroke:#000000;stroke-width:0.77221727;stroke-opacity:0"
       id="path4494-35-7-6"
       cx="-225.26022"
       cy="432.89432"
       r="0.88731509"
       transform="scale(-1,1)" />
    <circle
       style="display:inline;fill:#0c0c0c;fill-opacity:1;stroke:#000000;stroke-width:0.67351681;stroke-opacity:0"
       id="path4494-62-3-0"
       cx="-220.77611"
       cy="436.40054"
       r="0.77390349"
       transform="scale(-1,1)" />
    <path
       style="display:inline;fill:#1a1a1a;fill-opacity:1;stroke:#000000;stroke-width:1.02219272;stroke-opacity:0"
       d="m 238.02951,414.40843 c -2.33132,-1.51341 -6.10325,-3.19185 -10.31924,-3.9057 -0.76585,0.0704 -0.91685,1.47157 -0.35156,1.74311 3.0463,0.6986 7.56995,1.39728 10.08097,2.98803 0.32869,0.19287 0.91098,-0.41044 0.58983,-0.82544 z"
       id="rect4556-2-6"
       inkscape:connector-curvature="0"
       sodipodi:nodetypes="ccccc" />
    <path
       style="display:inline;fill:#1a1a1a;fill-opacity:1;stroke:#000000;stroke-width:1.02219272;stroke-opacity:0"
       d="m 235.7157,419.83526 c -2.29856,-1.41713 -4.14038,-3.40876 -9.08234,-3.77628 -0.51791,-0.002 -0.70326,1.11389 -0.29914,1.30564 3.35995,0.052 6.32014,1.80915 8.64738,3.55485 0.57955,0.19975 1.14971,-0.7901 0.7341,-1.08421 z"
       id="rect4559-9-2"
       inkscape:connector-curvature="0"
       sodipodi:nodetypes="ccccc" />
    <path
       style="display:inline;fill:#1a1a1a;fill-opacity:1;stroke:#000000;stroke-width:1.02219272;stroke-opacity:0"
       d="m 232.75324,424.16973 c -2.26896,-1.69719 -3.88055,-3.82965 -7.4752,-4.12324 -0.60431,-0.12661 -1.14275,0.75757 -0.58285,1.14807 3.41423,0.20029 5.17317,2.40391 7.41929,4.00596 0.45974,0.0531 1.02879,-0.24253 0.63887,-1.03079 z"
       id="rect4562-3-6"
       inkscape:connector-curvature="0"
       sodipodi:nodetypes="cccccc" />
    <path
       style="display:inline;fill:#1a1a1a;fill-opacity:1;stroke:#000000;stroke-width:1.02219272;stroke-opacity:0"
       d="m 229.15166,429.10976 c -1.38128,-2.05528 -3.84269,-3.88038 -6.60915,-4.73115 -1.40985,0.21207 -1.27393,1.01071 -0.96211,1.33973 0.0687,0.0251 1.17614,-0.0962 1.17614,-0.0962 3.07721,1.23731 4.27524,2.52204 5.43682,4.22231 0.66495,0.12967 1.19516,-0.0417 0.9583,-0.7347 z"
       id="rect4565-1-1"
       inkscape:connector-curvature="0"
       sodipodi:nodetypes="cccscc" />
    <path
       style="display:inline;fill:#1a1a1a;fill-opacity:1;stroke:#000000;stroke-width:1.02219272;stroke-opacity:0"
       d="m 225.6177,432.52951 c -1.44128,-2.10067 -3.24243,-3.83125 -6.16509,-4.40822 -0.5588,0.0464 -0.76472,0.43393 -0.63888,0.83053 0.0609,0.1353 0.17392,0.57544 0.29922,0.60166 0.11679,0.0244 0.42855,-0.45041 0.42855,-0.45041 2.52959,1.01108 3.88254,2.60297 5.1179,4.16115 0.66495,0.12966 1.19519,-0.0417 0.9583,-0.73471 z"
       id="rect4565-0-9-8"
       inkscape:connector-curvature="0"
       sodipodi:nodetypes="cccsscc" />
    <path
       style="display:inline;fill:#1a1a1a;fill-opacity:1;stroke:#000000;stroke-width:1.02219272;stroke-opacity:0"
       d="m 220.87434,435.87245 c -1.40535,-1.75462 -2.47632,-3.27584 -5.12694,-3.54574 -0.6901,-0.0138 -0.83204,0.4914 -0.52834,0.85059 -0.002,-0.0298 0.24242,-0.20746 0.24263,-0.20738 2.5813,1.00746 3.28604,1.80578 4.45437,3.63724 0.66495,0.12966 1.19517,-0.0417 0.9583,-0.73471 z"
       id="rect4565-9-4-7"
       inkscape:connector-curvature="0"
       sodipodi:nodetypes="cccsccc" />
    <path
       style="display:inline;fill:#1a1a1a;fill-opacity:1;stroke:#000000;stroke-width:0.62169647;stroke-opacity:0"
       d="m 182.50301,447.34089 c 1.78964,1.02044 3.13753,-4.06878 6.60555,-4.42961 3.70566,-0.38552 8.29039,0.4113 8.15975,-2.56447 -0.0904,-2.05815 -4.97145,-3.46783 -9.32546,-2.56451 -4.7923,0.99425 -9.32544,7.34303 -5.43984,9.55859 z"
       id="path4509-7-9"
       inkscape:connector-curvature="0"
       sodipodi:nodetypes="sssss" />
  </g>
  <g
     inkscape:groupmode="layer"
     id="layer17"
     inkscape:label="glanL"
     style="display:inline">
    <path
       style="display:inline;fill:#0c0c0c;fill-opacity:1;stroke:#000000;stroke-width:1.02219272;stroke-opacity:0"
       d="m 323.1102,414.52516 c -13.10512,2.68013 -26.07236,4.3785 -38.17533,-0.35467 -4.99694,1.5006 -1.80956,7.59181 -6.90076,15.87863 -4.87023,6.43255 -5.97012,9.15967 -11.26684,12.29161 l -5.6584,2.07388 c -13.19033,-9.82649 -35.59041,-3.70217 -32.51705,16.90097 10.63647,11.70031 26.39576,14.54974 44.5284,12.73425 20.15715,-6.59629 20.62516,-13.99609 29.94064,-27.48911 1.00236,-1.45187 1.65301,12.13056 3.29198,11.85643 4.71336,-0.78835 10.55215,-4.10696 11.80583,-6.13335 2.15769,-11.45203 3.52576,-22.29353 4.95153,-37.75864 z"
       id="rect4460-3"
       inkscape:connector-curvature="0"
       sodipodi:nodetypes="cccccccsscc" />
    <circle
       style="display:inline;fill:#333333;fill-opacity:1;stroke:#000000;stroke-width:1.02219272;stroke-opacity:0"
       id="path4480-7"
       cx="-292.07285"
       cy="422.45102"
       r="1.469402"
       transform="scale(-1,1)" />
    <circle
       style="display:inline;fill:#333333;fill-opacity:1;stroke:#000000;stroke-width:1.02219272;stroke-opacity:0"
       id="path4482-9"
       cx="-289.51736"
       cy="427.88141"
       r="1.469402"
       transform="scale(-1,1)" />
    <circle
       style="display:inline;fill:#333333;fill-opacity:1;stroke:#000000;stroke-width:1.02219272;stroke-opacity:0"
       id="path4484-2"
       cx="-286.77023"
       cy="432.35349"
       r="1.405515"
       transform="scale(-1,1)" />
    <circle
       style="display:inline;fill:#333333;fill-opacity:1;stroke:#000000;stroke-width:1.02219272;stroke-opacity:0"
       id="path4486-0"
       cx="-282.96896"
       cy="437.04919"
       r="1.5652326"
       transform="scale(-1,1)" />
    <circle
       style="display:inline;fill:#333333;fill-opacity:1;stroke:#000000;stroke-width:1.02219272;stroke-opacity:0"
       id="path4488-2"
       cx="-279.35934"
       cy="440.33936"
       r="1.469402"
       transform="scale(-1,1)" />
    <circle
       style="display:inline;fill:#333333;fill-opacity:1;stroke:#000000;stroke-width:1.02219272;stroke-opacity:0"
       id="path4490-3"
       cx="-274.91916"
       cy="443.82123"
       r="1.2457974"
       transform="scale(-1,1)" />
    <circle
       style="display:inline;fill:#0c0c0c;fill-opacity:1;stroke:#000000;stroke-width:0.71710134;stroke-opacity:0"
       id="path4494-3-2"
       cx="-292.08368"
       cy="422.41367"
       r="0.82398421"
       transform="scale(-1,1)" />
    <circle
       style="display:inline;fill:#0c0c0c;fill-opacity:1;stroke:#000000;stroke-width:0.7448228;stroke-opacity:0"
       id="path4494-6-2"
       cx="-289.53088"
       cy="427.883"
       r="0.85583764"
       transform="scale(-1,1)" />
    <circle
       style="display:inline;fill:#0c0c0c;fill-opacity:1;stroke:#000000;stroke-width:0.70257324;stroke-opacity:0"
       id="path4494-7-8"
       cx="-286.80618"
       cy="432.35623"
       r="0.80729067"
       transform="scale(-1,1)" />
    <circle
       style="display:inline;fill:#0c0c0c;fill-opacity:1;stroke:#000000;stroke-width:0.81395572;stroke-opacity:0"
       id="path4494-5-9"
       cx="-282.97696"
       cy="437.04123"
       r="0.93527466"
       transform="scale(-1,1)" />
    <circle
       style="display:inline;fill:#0c0c0c;fill-opacity:1;stroke:#000000;stroke-width:0.77221727;stroke-opacity:0"
       id="path4494-35-7"
       cx="-279.40042"
       cy="440.30609"
       r="0.88731509"
       transform="scale(-1,1)" />
    <circle
       style="display:inline;fill:#0c0c0c;fill-opacity:1;stroke:#000000;stroke-width:0.67351681;stroke-opacity:0"
       id="path4494-62-3"
       cx="-274.91629"
       cy="443.81235"
       r="0.77390349"
       transform="scale(-1,1)" />
    <path
       style="display:inline;fill:#1a1a1a;fill-opacity:1;stroke:#000000;stroke-width:1.02219272;stroke-opacity:0"
       d="m 292.16969,421.8202 c -2.33133,-1.51341 -6.10325,-3.19185 -10.31924,-3.9057 -0.76585,0.0704 -0.91685,1.47158 -0.35156,1.74311 3.0463,0.6986 7.56995,1.39729 10.08097,2.98803 0.32869,0.19287 0.91098,-0.41044 0.58983,-0.82544 z"
       id="rect4556-2"
       inkscape:connector-curvature="0"
       sodipodi:nodetypes="ccccc" />
    <path
       style="display:inline;fill:#1a1a1a;fill-opacity:1;stroke:#000000;stroke-width:1.02219272;stroke-opacity:0"
       d="m 289.85588,427.24704 c -2.29856,-1.41714 -4.14038,-3.40877 -9.08234,-3.77629 -0.51791,-0.002 -0.70326,1.1139 -0.29914,1.30564 3.35995,0.052 6.32013,1.80916 8.64738,3.55485 0.57955,0.19976 1.14971,-0.7901 0.7341,-1.0842 z"
       id="rect4559-9"
       inkscape:connector-curvature="0"
       sodipodi:nodetypes="ccccc" />
    <path
       style="display:inline;fill:#1a1a1a;fill-opacity:1;stroke:#000000;stroke-width:1.02219272;stroke-opacity:0"
       d="m 286.89341,431.5815 c -2.26895,-1.69719 -3.88054,-3.82965 -7.47519,-4.12323 -0.60432,-0.12662 -1.14275,0.75756 -0.58286,1.14806 3.41424,0.2003 5.17318,2.40391 7.4193,4.00596 0.45974,0.0531 1.02879,-0.24253 0.63886,-1.03079 z"
       id="rect4562-3"
       inkscape:connector-curvature="0"
       sodipodi:nodetypes="cccccc" />
    <path
       style="display:inline;fill:#1a1a1a;fill-opacity:1;stroke:#000000;stroke-width:1.02219272;stroke-opacity:0"
       d="m 283.29183,436.52153 c -1.38128,-2.05528 -3.84268,-3.88038 -6.60914,-4.73115 -1.40985,0.21207 -1.27393,1.01071 -0.96211,1.33974 0.0687,0.0251 1.17614,-0.0962 1.17614,-0.0962 3.07721,1.23731 4.27524,2.52205 5.43681,4.22231 0.66495,0.12967 1.19517,-0.0416 0.9583,-0.73469 z"
       id="rect4565-1"
       inkscape:connector-curvature="0"
       sodipodi:nodetypes="cccscc" />
    <path
       style="display:inline;fill:#1a1a1a;fill-opacity:1;stroke:#000000;stroke-width:1.02219272;stroke-opacity:0"
       d="m 279.75788,439.94128 c -1.44128,-2.10067 -3.24243,-3.83125 -6.16509,-4.40822 -0.5588,0.0464 -0.76472,0.43393 -0.63889,0.83053 0.0609,0.1353 0.17393,0.57544 0.29922,0.60166 0.1168,0.0244 0.42856,-0.45041 0.42856,-0.45041 2.52958,1.01108 3.88254,2.60297 5.1179,4.16115 0.66495,0.12967 1.19519,-0.0417 0.9583,-0.73471 z"
       id="rect4565-0-9"
       inkscape:connector-curvature="0"
       sodipodi:nodetypes="cccsscc" />
    <path
       style="display:inline;fill:#1a1a1a;fill-opacity:1;stroke:#000000;stroke-width:1.02219272;stroke-opacity:0"
       d="m 275.01452,443.28422 c -1.40535,-1.75462 -2.47633,-3.27583 -5.12694,-3.54574 -0.6901,-0.0138 -0.83204,0.4914 -0.52834,0.85059 -0.002,-0.0298 0.24242,-0.20745 0.24263,-0.20738 2.5813,1.00746 3.28604,1.80578 4.45437,3.63724 0.66495,0.12967 1.19517,-0.0416 0.9583,-0.73471 z"
       id="rect4565-9-4"
       inkscape:connector-curvature="0"
       sodipodi:nodetypes="cccsccc" />
    <path
       style="color:#000000;clip-rule:nonzero;display:inline;overflow:visible;visibility:visible;opacity:1;isolation:auto;mix-blend-mode:normal;color-interpolation:sRGB;color-interpolation-filters:linearRGB;solid-color:#000000;solid-opacity:1;fill:#1a1a1a;fill-opacity:1;fill-rule:nonzero;stroke:#000000;stroke-width:9.69430637;stroke-miterlimit:4;stroke-dasharray:none;stroke-opacity:0;color-rendering:auto;image-rendering:auto;shape-rendering:auto;text-rendering:auto;enable-background:accumulate"
       d="m 258.97251,446.67592 c -0.22835,3.22256 -6.67831,-0.14892 -13.994,0.64588 -6.08767,0.66138 -12.4239,6.39654 -12.27166,2.26056 0.0765,-2.07938 7.00935,-8.50403 13.13283,-8.50403 6.12348,0 13.27991,3.522 13.13283,5.59759 z"
       id="path4720"
       inkscape:connector-curvature="0"
       sodipodi:nodetypes="sssss" />
  </g>
  <g
     inkscape:groupmode="layer"
     id="layer9"
     inkscape:label="trousers"
     style="display:inline">
    <rect
       style="fill:#241f1c;fill-opacity:1;stroke:#000000;stroke-width:1.21787763;stroke-opacity:0"
       id="rect4926"
       width="0.21529238"
       height="0.053823095"
       x="225.4407"
       y="376.43677" />
  </g>
  <g
     inkscape:groupmode="layer"
     id="layer13"
     inkscape:label="glany L"
     style="display:inline" />
  <g
     inkscape:groupmode="layer"
     id="layer24"
     inkscape:label="armL 1"
     style="display:inline">
    <path
       style="color:#000000;clip-rule:nonzero;display:inline;overflow:visible;visibility:visible;opacity:1;isolation:auto;mix-blend-mode:normal;color-interpolation:sRGB;color-interpolation-filters:linearRGB;solid-color:#000000;solid-opacity:1;fill:#e9c6af;fill-opacity:1;fill-rule:nonzero;stroke:#000000;stroke-width:9.69430637;stroke-miterlimit:4;stroke-dasharray:none;stroke-opacity:0;color-rendering:auto;image-rendering:auto;shape-rendering:auto;text-rendering:auto;enable-background:accumulate"
       d="m 237.14903,319.15846 c 11.59264,-12.17187 3.67044,-39.24823 -27.50174,-17.47691 l -18.92458,18.95937 c -8.27396,27.6564 8.03298,37.8471 24.29766,13.68058 z"
       id="rect4874-3"
       inkscape:connector-curvature="0"
       sodipodi:nodetypes="ccccc" />
  </g>
  <g
     inkscape:groupmode="layer"
     id="layer22"
     inkscape:label="armL"
     style="display:inline" />
  <g
     inkscape:groupmode="layer"
     id="layer23"
     inkscape:label="armP 1"
     style="display:inline">
    <path
       style="color:#000000;clip-rule:nonzero;display:inline;overflow:visible;visibility:visible;opacity:1;isolation:auto;mix-blend-mode:normal;color-interpolation:sRGB;color-interpolation-filters:linearRGB;solid-color:#000000;solid-opacity:1;fill:#e9c6af;fill-opacity:1;fill-rule:nonzero;stroke:#000000;stroke-width:7.81580591;stroke-miterlimit:4;stroke-dasharray:none;stroke-opacity:0;color-rendering:auto;image-rendering:auto;shape-rendering:auto;text-rendering:auto;enable-background:accumulate"
       d="m 334.19751,316.13042 c -5.80488,-6.43037 -12.3511,-34.52311 -2.61793,-36.47664 4.57265,-0.91777 25.61816,18.69835 28.41858,21.98319 l 11.62948,15.68866 c 12.31737,17.73946 -12.91395,57.64291 -24.49884,15.44812 z"
       id="rect4874"
       inkscape:connector-curvature="0"
       sodipodi:nodetypes="cscccc" />
  </g>
  <g
     inkscape:groupmode="layer"
     id="layer25"
     inkscape:label="armP 2"
     style="display:inline" />
  <g
     inkscape:groupmode="layer"
     id="layer21"
     inkscape:label="armP"
     style="display:inline" />
  <g
     inkscape:groupmode="layer"
     id="layer7"
     inkscape:label="tshirt"
     style="display:inline">
    <path
       style="fill:#c83737;fill-opacity:1;stroke:#000000;stroke-width:1.95904565;stroke-opacity:0"
       d="m 229.59326,269.10835 c 12.96451,-14.63599 50.661,-19.98391 83.04204,-21.41282 25.65307,-5.10897 32.5856,84.22194 12.22108,103.38517 -38.25632,17.7758 -73.69994,13.33762 -92.79369,3.94523 -0.65556,-7.53464 -12.77182,-26.2381 -2.46943,-85.9175 z"
       id="rect4268"
       inkscape:connector-curvature="0"
       sodipodi:nodetypes="cccccc" />
    <path
       style="color:#000000;clip-rule:nonzero;display:inline;overflow:visible;visibility:visible;opacity:1;isolation:auto;mix-blend-mode:normal;color-interpolation:sRGB;color-interpolation-filters:linearRGB;solid-color:#000000;solid-opacity:1;fill:#d35f5f;fill-opacity:0.72527472;fill-rule:nonzero;stroke:#000000;stroke-width:9.69430637;stroke-miterlimit:4;stroke-dasharray:none;stroke-opacity:0;color-rendering:auto;image-rendering:auto;shape-rendering:auto;text-rendering:auto;enable-background:accumulate"
       d="m 319.57732,289.62013 c 2.78327,2.55005 2.6221,38.54005 -8.93463,51.88546 -6.19263,6.32111 -36.82982,7.57341 -55.33015,4.62879 -27.79478,-5.24232 20.97824,-9.82937 35.75415,-22.93823 17.48323,-15.51073 22.06501,-41.02535 28.51063,-33.57602 z"
       id="rect3530"
       inkscape:connector-curvature="0"
       sodipodi:nodetypes="cccsc" />
  </g>
  <g
     inkscape:groupmode="layer"
     id="layer2"
     inkscape:label="head"
     style="display:inline;opacity:1">
    <path
       style="fill:#e9c6af;fill-opacity:1"
       d="M 137.92511,160.95908 C 174.41453,68.983805 302.83566,59.131975 382.20624,138.9308 c -7.54796,30.98809 -12.7829,63.2979 -22.64387,92.96427 -3.64592,15.02391 -23.66731,30.33739 -36.84035,39.71167 -26.58818,18.92089 -55.66607,24.18942 -80.28286,28.42893 -3.73612,-0.69886 -8.57001,-2.3496 -13.08655,-6.30306 -27.35871,-11.12173 -69.95647,-34.43575 -76.04772,-63.01525 -1.36982,-9.26127 -0.71399,-20.17194 7.24204,-31.31345 -5.78305,-11.72583 -9.25023,-26.62507 -22.62182,-38.44483 z"
       id="rect4164"
       inkscape:connector-curvature="0"
       sodipodi:nodetypes="cccsccccc" />
    <path
       style="color:#000000;clip-rule:nonzero;display:inline;overflow:visible;visibility:visible;opacity:1;isolation:auto;mix-blend-mode:normal;color-interpolation:sRGB;color-interpolation-filters:linearRGB;solid-color:#000000;solid-opacity:1;fill:#552200;fill-opacity:1;fill-rule:nonzero;stroke:#6a6a6a;stroke-width:8.55900002;stroke-miterlimit:4;stroke-dasharray:none;stroke-opacity:0;color-rendering:auto;image-rendering:auto;shape-rendering:auto;text-rendering:auto;enable-background:accumulate"
       d="m 241.77817,59.40202 c 42.92805,-13.964709 108.53817,-16.092861 166.99138,70.00357 3.14272,8.23085 18.70682,46.82914 -10.93396,122.3112 -6.33683,16.13713 -4.52347,-46.90639 -11.04442,-29.42172 -10.2246,27.41534 -31.3913,45.73055 -34.06568,50.1445 -5.81692,9.60058 24.83445,-92.21104 16.44608,-84.03398 -55.84014,-13.55375 -91.80365,-35.04093 -140.12132,-63.63961 l -74.29581,61.10241 C 131.34454,168.59562 116.99469,82.440472 241.77817,59.40202 Z"
       id="rect3467"
       inkscape:connector-curvature="0"
       sodipodi:nodetypes="ccssscccc" />
  </g>
  <g
     inkscape:groupmode="layer"
     id="layer4"
     inkscape:label="mount"
     style="display:inline">
    <path
       style="fill:#deaa87;fill-opacity:0.6;stroke:#000000;stroke-width:1.21787763;stroke-opacity:0"
       d="m 227.10924,201.6732 c 3.30973,12.05259 7.44663,13.08951 18.08457,14.85517 -12.48786,3.3593 -20.52936,-0.24167 -18.08457,-14.85517 z"
       id="rect4232"
       inkscape:connector-curvature="0"
       sodipodi:nodetypes="ccc" />
    <path
       style="color:#000000;clip-rule:nonzero;display:inline;overflow:visible;visibility:visible;opacity:1;isolation:auto;mix-blend-mode:normal;color-interpolation:sRGB;color-interpolation-filters:linearRGB;solid-color:#000000;solid-opacity:1;fill:#aa0000;fill-opacity:1;fill-rule:nonzero;stroke:#6a6a6a;stroke-width:8.55900002;stroke-miterlimit:4;stroke-dasharray:none;stroke-opacity:0;color-rendering:auto;image-rendering:auto;shape-rendering:auto;text-rendering:auto;enable-background:accumulate"
       d="m 239.3691,259.9158 c 13.14828,-12.57476 17.25791,-5.85846 34.25,-6.09835 -11.97628,16.75575 -31.14979,16.84485 -45.13791,17.47198 -5.63827,0.25278 -11.14865,-3.48221 -10.23583,-8.22198 4.93239,-10.3581 11.06186,-8.95818 21.12374,-3.15165 z"
       id="rect4376"
       inkscape:connector-curvature="0"
       sodipodi:nodetypes="ccscc" />
    <path
       style="color:#000000;clip-rule:nonzero;display:inline;overflow:visible;visibility:visible;opacity:1;isolation:auto;mix-blend-mode:normal;color-interpolation:sRGB;color-interpolation-filters:linearRGB;solid-color:#000000;solid-opacity:1;fill:#aa0000;fill-opacity:1;fill-rule:nonzero;stroke:#6a6a6a;stroke-width:8.55900002;stroke-miterlimit:4;stroke-dasharray:none;stroke-opacity:0;color-rendering:auto;image-rendering:auto;shape-rendering:auto;text-rendering:auto;enable-background:accumulate"
       d="m 222.44728,272.62685 c 21.22505,2.75317 33.23068,0.15924 52.00051,-12.61365 -17.94725,29.69821 -36.72503,22.99292 -52.00051,12.61365 z"
       id="rect4379"
       inkscape:connector-curvature="0"
       sodipodi:nodetypes="ccc" />
  </g>
  <g
     inkscape:groupmode="layer"
     id="layer3"
     inkscape:label="eye"
     style="display:inline">
    <path
       style="fill:#ffffff;fill-opacity:1"
       d="m 251.53464,212.81407 c 30.32877,-31.95682 52.85261,-45.07417 68.16386,-40.78179 2.5338,15.10312 2.21609,25.2839 -5.82598,35.24712 -15.26445,17.4697 -27.38518,18.67597 -45.62665,19.42477 -14.51518,-0.17785 -17.79914,-11.15234 -16.71123,-13.8901 z"
       id="rect4168"
       inkscape:connector-curvature="0"
       sodipodi:nodetypes="ccccc" />
    <path
       style="fill:#ffffff;fill-opacity:1;fill-rule:evenodd;stroke:#000000;stroke-width:1.21787763px;stroke-linecap:butt;stroke-linejoin:miter;stroke-opacity:0"
       d="m 173.07824,206.11422 c -4.05546,-9.24606 -3.51051,-15.90439 -3.59269,-22.91548 l 46.99616,36.21811 c 0.78067,1.65166 1.44212,6.91475 -0.87389,9.61286 -13.5635,1.96929 -31.49065,-3.59266 -42.52958,-22.91549 z"
       id="rect3339"
       inkscape:connector-curvature="0"
       sodipodi:nodetypes="ccccc" />
    <ellipse
       style="fill:#483737;fill-opacity:1;stroke:#000000;stroke-width:2.04479408;stroke-opacity:0"
       id="path4142"
       cx="136.62273"
       cy="328.91623"
       rx="28.64254"
       ry="12.426813"
       transform="matrix(0.80512416,-0.5931063,0.5595957,0.82876574,0,0)" />
    <ellipse
       style="fill:#000000;fill-opacity:0.46666667;stroke:#000000;stroke-width:1.98420525;stroke-opacity:0"
       id="path4144"
       cx="162.34448"
       cy="324.73596"
       rx="10.730793"
       ry="6.1710348"
       transform="matrix(0.82557315,-0.56429511,0.5041843,0.86359608,0,0)" />
    <ellipse
       style="fill:#ffffff;fill-opacity:0.73333333;stroke:#000000;stroke-width:1.66490257;stroke-opacity:0"
       id="path4146"
       cx="100.2375"
       cy="324.29056"
       rx="14.826911"
       ry="7.0589504"
       transform="matrix(0.81311593,-0.58210178,0.58210178,0.81311593,0,0)" />
    <path
       style="fill:#000000;fill-opacity:1;stroke:#000000;stroke-width:1.21787763;stroke-opacity:0"
       d="m 170.83358,173.76845 40.97599,34.37322 c -0.57,4.1538 -1.64308,5.28907 -2.71878,6.40857 l -21.5561,-16.70112 c -5.75676,-7.74231 -11.9041,-14.89873 -16.70111,-24.08067 z"
       id="rect4151"
       inkscape:connector-curvature="0"
       sodipodi:nodetypes="ccccc" />
    <path
       style="fill:#483737;fill-opacity:1;stroke:#000000;stroke-width:1.74481118;stroke-opacity:0"
       d="m 215.62284,218.67 c -2.06149,6.33858 -14.02392,5.99633 -23.97994,-1.0721 -9.95602,-7.06844 -15.1443,-20.79777 -10.61751,-25.69015 0,0 8.34704,6.60993 18.2344,14.22765 9.67227,7.45199 16.36305,12.5346 16.36305,12.5346 z"
       id="path4178"
       inkscape:connector-curvature="0"
       sodipodi:nodetypes="sssss" />
    <path
       style="fill:#000000;fill-opacity:0.46666667;stroke:#000000;stroke-width:1.82260776;stroke-opacity:0"
       d="m 205.01459,210.56806 c 3.44464,2.65654 5.56779,3.6083 4.00322,5.28607 -1.72876,1.85392 -6.1243,1.20671 -9.67442,-1.30716 -3.55011,-2.51388 -4.04912,-8.87545 -1.57952,-9.4471 0,0 3.71964,2.74498 7.25072,5.46819 z"
       id="path4181"
       inkscape:connector-curvature="0"
       sodipodi:nodetypes="sssss" />
    <ellipse
       style="fill:#ffffff;fill-opacity:0.86666667;stroke:#000000;stroke-width:1.61819971;stroke-opacity:0"
       id="path4184"
       cx="256.81964"
       cy="110.84248"
       rx="10.779751"
       ry="5.2359715"
       transform="matrix(0.9066765,0.42182666,-0.42182666,0.9066765,0,0)" />
    <path
       style="display:inline;fill:#000000;fill-opacity:1;stroke:#000000;stroke-width:1.21787763;stroke-opacity:0"
       d="m 277.26888,179.30347 c 7.87553,-5.58096 13.76089,-7.84498 20.19028,-11.01574 -4.01124,4.125 -6.39338,7.16393 -12.03391,12.37513 l -37.28621,34.56743 c -2.65462,1.57592 -8.58871,-0.76137 -9.51576,-5.43758 z"
       id="rect4148"
       inkscape:connector-curvature="0"
       sodipodi:nodetypes="cccccc" />
    <path
       style="color:#000000;clip-rule:nonzero;display:inline;overflow:visible;visibility:visible;opacity:1;isolation:auto;mix-blend-mode:normal;color-interpolation:sRGB;color-interpolation-filters:linearRGB;solid-color:#000000;solid-opacity:1;fill:#000000;fill-opacity:1;fill-rule:nonzero;stroke:#6a6a6a;stroke-width:8.55900002;stroke-miterlimit:4;stroke-dasharray:none;stroke-opacity:0;color-rendering:auto;image-rendering:auto;shape-rendering:auto;text-rendering:auto;enable-background:accumulate"
       d="m 299,161.25 c -0.5868,4.08645 -2.06632,8.28449 -0.16461,12.05987 0.69223,-6.11119 3.38187,-10.42471 7.40436,-13.53867 -1.65034,4.91327 -2.30459,9.24548 0.0215,11.83916 -0.0482,-5.27131 2.28125,-8.8443 4.49908,-12.49702 -0.32336,4.59125 -0.49878,9.06416 0.81772,12.34352 -0.25579,-4.65556 1.86866,-7.27091 3.87859,-9.98442 -0.28325,3.19075 -0.73288,6.40923 0.91838,9.27756 0.21351,-3.43223 1.93194,-5.92389 4.8111,-7.69009 -2.3076,5.6912 -0.66129,10.19622 0.18888,14.94009 -11.74251,-6.79058 -21.25088,-2.40201 -29.375,0.375 0.55032,-5.77591 0.89314,-11.55969 7,-17.125 z"
       id="rect4358"
       inkscape:connector-curvature="0"
       sodipodi:nodetypes="cccccccccccc" />
    <path
       style="color:#000000;clip-rule:nonzero;display:inline;overflow:visible;visibility:visible;opacity:1;isolation:auto;mix-blend-mode:normal;color-interpolation:sRGB;color-interpolation-filters:linearRGB;solid-color:#000000;solid-opacity:1;fill:#000000;fill-opacity:1;fill-rule:nonzero;stroke:#6a6a6a;stroke-width:8.55900002;stroke-miterlimit:4;stroke-dasharray:none;stroke-opacity:0;color-rendering:auto;image-rendering:auto;shape-rendering:auto;text-rendering:auto;enable-background:accumulate"
       d="m 190.16271,174.00412 c -1.11057,3.97619 -1.44918,8.41441 -4.71163,11.10262 1.83042,-5.87158 1.10819,-10.90338 -1.3174,-15.37481 -0.47066,5.16162 -1.61859,9.3899 -4.79296,10.82561 2.16938,-4.80446 1.4782,-9.01336 0.92131,-13.25022 -1.55517,4.33192 -3.19802,8.4959 -5.72494,10.96613 2.11109,-4.15727 1.22141,-7.40717 0.47611,-10.70072 -1.02723,3.03413 -1.91338,6.16071 -4.58093,8.11983 1.18841,-3.22699 0.62042,-6.2 -1.30227,-8.9771 -1.83989,8.91392 -10.14708,18.96844 0.49248,27.78903 0.70938,0.47568 -1.06534,-11.22939 0.55688,-10.34795 7.59397,4.12623 12.73413,11.15809 20.01512,9.93227 1.82511,-5.50753 3.31295,-12.5296 -0.0318,-20.08469 z"
       id="rect4358-3"
       inkscape:connector-curvature="0"
       sodipodi:nodetypes="ccccccccccsccc" />
  </g>
</svg>
